<?xml version="1.0" encoding="UTF-8"?>
<svg xmlns="http://www.w3.org/2000/svg" xmlns:xlink="http://www.w3.org/1999/xlink" width="24px" height="24px" viewBox="0 0 24 24" version="1.1">
<g id="surface1">
<path style=" stroke:none;fill-rule:nonzero;fill:rgb(0%,0%,0%);fill-opacity:1;" d="M 18.230469 10.894531 L 17.425781 11.699219 C 17.289062 8.019531 15.546875 2.339844 12.554688 0.179688 C 12.222656 -0.0585938 11.777344 -0.0585938 11.445312 0.179688 C 8.382812 2.390625 6.710938 8.125 6.574219 11.699219 L 5.769531 10.894531 C 5.175781 10.296875 4.152344 10.71875 4.152344 11.5625 L 4.152344 16.152344 C 4.152344 20.480469 7.671875 24 12 24 C 16.328125 24 19.847656 20.480469 19.847656 16.152344 L 19.847656 11.5625 C 19.847656 10.722656 18.828125 10.296875 18.230469 10.894531 Z M 8.503906 11.097656 L 11.367188 11.097656 C 11.890625 11.097656 12.316406 10.675781 12.316406 10.152344 C 12.316406 9.628906 11.890625 9.203125 11.367188 9.203125 L 8.769531 9.203125 C 8.847656 8.816406 8.9375 8.429688 9.039062 8.050781 L 11.367188 8.050781 C 11.890625 8.050781 12.316406 7.628906 12.316406 7.105469 C 12.316406 6.582031 11.890625 6.15625 11.367188 6.15625 L 9.664062 6.15625 C 10.3125 4.484375 11.15625 3.0625 12 2.203125 C 12.84375 3.066406 13.6875 4.488281 14.339844 6.160156 C 13.835938 6.179688 13.433594 6.59375 13.433594 7.105469 C 13.433594 7.628906 13.855469 8.050781 14.378906 8.050781 L 14.960938 8.050781 C 15.0625 8.429688 15.152344 8.816406 15.230469 9.203125 L 14.378906 9.203125 C 13.855469 9.203125 13.433594 9.628906 13.433594 10.152344 C 13.433594 10.675781 13.855469 11.097656 14.378906 11.097656 L 15.496094 11.097656 C 15.523438 11.453125 15.539062 11.808594 15.539062 12.160156 C 15.539062 12.1875 15.539062 12.21875 15.535156 12.25 L 14.378906 12.25 C 13.855469 12.25 13.433594 12.671875 13.433594 13.195312 C 13.433594 13.71875 13.855469 14.144531 14.378906 14.144531 L 14.976562 14.144531 L 12 17.121094 L 9.023438 14.144531 L 11.367188 14.144531 C 11.890625 14.144531 12.316406 13.71875 12.316406 13.195312 C 12.316406 12.671875 11.890625 12.25 11.367188 12.25 L 8.464844 12.25 C 8.464844 12.21875 8.460938 12.1875 8.460938 12.160156 C 8.460938 11.808594 8.476562 11.453125 8.503906 11.097656 Z M 17.953125 16.152344 C 17.953125 19.433594 15.28125 22.105469 12 22.105469 C 8.71875 22.105469 6.046875 19.433594 6.046875 16.152344 L 6.046875 13.851562 L 11.328125 19.132812 C 11.695312 19.5 12.296875 19.503906 12.667969 19.132812 C 14.195312 17.605469 17.332031 14.46875 17.953125 13.851562 Z M 17.953125 16.152344 "/>
</g>
</svg>
